<svg width="20" height="20" viewBox="0 0 20 20" fill="none" xmlns="http://www.w3.org/2000/svg">
<path fill-rule="evenodd" clip-rule="evenodd" d="M4.58271 15.5724C4.55193 15.5447 4.54945 15.4973 4.57716 15.4665L15.0836 3.79791C15.1113 3.76712 15.1587 3.76464 15.1895 3.79235L15.389 3.97195C15.4198 3.99967 15.4222 4.04709 15.3945 4.07787L4.8881 15.7464C4.86038 15.7772 4.81296 15.7797 4.78218 15.752L4.58271 15.5724Z" fill="#212121"/>
<path fill-rule="evenodd" clip-rule="evenodd" d="M11.5909 12.0724C11.8806 11.8434 12.2463 11.7346 12.6759 11.7346C12.9508 11.7346 13.2158 11.7628 13.4705 11.8195C13.7357 11.877 14.0389 11.9869 14.3791 12.146C14.4165 12.1635 14.4451 12.1957 14.458 12.235C14.4709 12.2742 14.4671 12.3171 14.4474 12.3534L14.2595 12.6997C14.2212 12.7703 14.1341 12.7982 14.0619 12.7629C13.7611 12.6162 13.5094 12.5152 13.3057 12.4573C13.1024 12.4064 12.8961 12.3809 12.6865 12.3809C12.4083 12.3809 12.2129 12.4441 12.0814 12.551L12.0791 12.5529C11.9422 12.6597 11.8757 12.7958 11.8757 12.9745C11.8757 13.1554 11.932 13.3053 12.0442 13.4323C12.1749 13.5646 12.4797 13.7716 12.98 14.0562C13.4351 14.3158 13.7739 14.543 13.9883 14.7376L13.9885 14.7378C14.2098 14.9393 14.3765 15.1593 14.4838 15.3985L14.4855 15.4024C14.5852 15.6424 14.6326 15.9245 14.6326 16.2443C14.6326 16.8781 14.453 17.3975 14.079 17.7848L14.0779 17.7859C13.7016 18.1678 13.1819 18.35 12.5404 18.35C11.9192 18.35 11.406 18.1746 11.0174 17.8106C10.6343 17.4517 10.4478 16.9716 10.4478 16.3868C10.4478 15.8403 10.6071 15.3816 10.9354 15.0236C11.1983 14.7248 11.5841 14.4972 12.0803 14.333C11.7964 14.1539 11.5808 13.977 11.4412 13.801L11.4399 13.7993C11.2531 13.5568 11.158 13.2838 11.158 12.9846C11.158 12.6141 11.3034 12.3062 11.5892 12.0737L11.5909 12.0724ZM13.5581 17.3289C13.7878 17.0873 13.9135 16.7298 13.9135 16.2323C13.9135 15.909 13.8247 15.6363 13.6511 15.407L13.6495 15.4049C13.4881 15.1836 13.2042 14.9641 12.781 14.7524C12.4144 14.8424 12.1452 14.9332 11.9669 15.023L11.9651 15.0239C11.77 15.1189 11.6198 15.2299 11.5102 15.3544L11.5077 15.3571C11.3979 15.4758 11.3142 15.6196 11.2577 15.7907C11.2572 15.7923 11.2566 15.7938 11.2561 15.7954C11.1934 15.9662 11.1607 16.162 11.1607 16.3847C11.1607 16.7914 11.2877 17.1023 11.5321 17.3344C11.7772 17.5669 12.1103 17.69 12.5476 17.69C12.9991 17.69 13.3289 17.5637 13.5581 17.3289ZM15.9663 12.1556C16.0172 12.1556 16.0646 12.1814 16.0922 12.2241L17.5759 14.5158L19.0793 12.2233C19.107 12.1811 19.1542 12.1556 19.2047 12.1556H19.654C19.7093 12.1556 19.7601 12.186 19.7862 12.2347C19.8123 12.2835 19.8095 12.3426 19.7789 12.3887L17.9848 15.0863L19.9254 18.0383C19.9557 18.0844 19.9583 18.1434 19.9321 18.1919C19.9059 18.2404 19.8552 18.2707 19.8001 18.2707H19.33C19.2793 18.2707 19.232 18.2451 19.2043 18.2026L17.5635 15.6848L15.8928 18.2036C15.865 18.2455 15.8181 18.2707 15.7678 18.2707H15.3084C15.2532 18.2707 15.2024 18.2404 15.1763 18.1917C15.1501 18.1431 15.1528 18.0841 15.1833 18.038L17.1344 15.0854L15.3707 12.3877C15.3406 12.3416 15.3382 12.2827 15.3644 12.2342C15.3906 12.1858 15.4412 12.1556 15.4963 12.1556H15.9663ZM3.07284 1.73498C2.81793 1.67821 2.55297 1.65002 2.27824 1.65002C1.8486 1.65002 1.48287 1.75884 1.19314 1.98787L1.19154 1.98915C0.905502 2.22168 0.76017 2.52958 0.76017 2.9001C0.76017 3.19927 0.855361 3.47225 1.04191 3.71473L1.04333 3.71655C1.18304 3.8925 1.39863 4.06934 1.6826 4.24846C1.18633 4.41264 0.800575 4.64028 0.537543 4.93906C0.209327 5.29702 0.0500488 5.7558 0.0500488 6.30222C0.0500488 6.8871 0.236525 7.36713 0.619681 7.72604C1.00829 8.09004 1.5213 8.26549 2.14247 8.26549C2.78418 8.26549 3.30384 8.08331 3.68009 7.70132L3.68113 7.70026C4.05511 7.31298 4.23489 6.79361 4.23489 6.15979C4.23489 5.84001 4.18762 5.55788 4.08759 5.31772L4.08599 5.31403C3.9787 5.07473 3.81191 4.85473 3.59048 4.65323C3.37626 4.45858 3.0374 4.23135 2.58237 3.97176C2.08208 3.68711 1.77707 3.48001 1.64652 3.34775C1.53426 3.2208 1.47801 3.07084 1.47801 2.88994C1.47801 2.71117 1.54425 2.57519 1.68125 2.46842L1.68367 2.4665C1.8152 2.35958 2.01056 2.29637 2.28866 2.29637C2.49839 2.29637 2.70476 2.32182 2.90785 2.37275C3.11154 2.43067 3.36309 2.53162 3.66408 2.67842C3.73624 2.71362 3.82333 2.68574 3.86165 2.61519L4.04969 2.26894C4.06942 2.2326 4.07328 2.18974 4.06036 2.15046C4.04743 2.11119 4.01887 2.07899 3.98142 2.06148C3.64113 1.90232 3.33793 1.79247 3.07284 1.73498ZM1.14062 7.2499C1.38569 7.48236 1.71875 7.60547 2.15607 7.60547C2.60757 7.60547 2.93719 7.47918 3.16664 7.24432C3.39621 7.00268 3.52201 6.64515 3.52201 6.14774C3.52201 5.82446 3.43324 5.55178 3.25962 5.32244L3.25803 5.32034C3.09654 5.09907 2.81253 4.87956 2.38941 4.66786C2.02281 4.75785 1.75346 4.84868 1.57529 4.9384L1.57347 4.93932C1.37837 5.03428 1.22835 5.14534 1.1184 5.26996L1.11609 5.27252C1.00639 5.39125 0.922671 5.53508 0.866178 5.70621C0.86566 5.70778 0.865115 5.70934 0.864545 5.71089C0.801827 5.88168 0.769186 6.07746 0.769186 6.30016C0.769186 6.70685 0.896106 7.01778 1.14062 7.2499ZM9.48784 2.14506C9.51479 2.19091 9.51544 2.24759 9.48956 2.29405L7.5229 5.82461V8.03616C7.5229 8.119 7.45575 8.18616 7.3729 8.18616H6.94423C6.86139 8.18616 6.79423 8.119 6.79423 8.03616V5.85488L4.81705 2.29387C4.79125 2.24741 4.79196 2.19077 4.81892 2.14497C4.84587 2.09917 4.89505 2.07106 4.94819 2.07106H5.42889C5.48375 2.07106 5.53424 2.10101 5.56054 2.14917L7.16426 5.08627L8.77762 2.14884C8.80397 2.10087 8.85436 2.07106 8.90909 2.07106H9.35852C9.4117 2.07106 9.4609 2.09921 9.48784 2.14506Z" fill="#212121"/>
</svg>
